<?xml version="1.0" encoding="UTF-8" standalone="no"?>
<svg
   height="27.981796"
   width="29.99399"
   viewBox="0 0 29.99399 27.981797"
   version="1.1"
   id="svg42"
   sodipodi:docname="drawing-tools.svg"
   xmlns:inkscape="http://www.inkscape.org/namespaces/inkscape"
   xmlns:sodipodi="http://sodipodi.sourceforge.net/DTD/sodipodi-0.dtd"
   xmlns="http://www.w3.org/2000/svg"
   xmlns:svg="http://www.w3.org/2000/svg">
  <sodipodi:namedview
     id="namedview42"
     pagecolor="#ffffff"
     bordercolor="#000000"
     borderopacity="0.25"
     inkscape:showpageshadow="2"
     inkscape:pageopacity="0.0"
     inkscape:pagecheckerboard="0"
     inkscape:deskcolor="#d1d1d1">
    <inkscape:page
       x="0"
       y="0"
       width="29.99399"
       height="27.981796"
       id="page2"
       margin="0"
       bleed="0" />
  </sodipodi:namedview>
  <defs
     id="defs2" />
  <g
     id="g43"
     transform="translate(-326.99999,-7.9999998)">
    <path
       d="m 356.64,21.782 -3.416,-3.414 c -0.472,-0.47 -1.236,-0.47 -1.708,0 l -0.854,0.854 c -0.47,0.47 -0.47,1.235 0,1.706 l 3.416,3.414 c 0.472,0.47 1.236,0.47 1.708,0 l 0.854,-0.853 c 0.472,-0.473 0.472,-1.237 0,-1.708 m -10.714,10.93 c -0.005,0 -0.012,0.01 -0.02,0.013 -0.004,0 -0.01,0.01 -0.014,0.01 -0.005,0 -0.01,0.01 -0.016,0.01 -0.005,0 -0.01,0.01 -0.017,0.01 -0.2,0.12 -0.783,0.425 -2.2,0.937 -0.165,0.06 -0.345,0.123 -0.534,0.19 l -2.014,-2.013 c 0.066,-0.19 0.13,-0.373 0.19,-0.54 0.51,-1.42 0.818,-2.004 0.936,-2.202 0.003,0 0.006,-0.01 0.008,-0.013 0.004,-0.01 0.008,-0.013 0.012,-0.02 0.003,0 0.006,-0.01 0.008,-0.012 0.005,-0.01 0.01,-0.014 0.013,-0.02 l 0.146,-0.147 3.65,3.647 -0.15,0.15 z m 3.882,-10.93 c -0.47,-0.47 -1.236,-0.47 -1.708,0 l -0.427,0.427 -5.977,5.973 h 0.002 l -0.19,0.188 c 0,0 -0.6,0.605 -1.956,4.976 -0.01,0.03 -0.02,0.06 -0.028,0.092 -0.024,0.078 -0.05,0.158 -0.074,0.24 -0.02,0.07 -0.043,0.143 -0.066,0.216 l -0.056,0.186 -0.13,0.44 c -0.098,0.33 -0.336,1.074 -0.067,1.343 0.26,0.26 1.014,0.03 1.343,-0.066 l 0.437,-0.13 0.194,-0.06 c 0.07,-0.02 0.137,-0.04 0.205,-0.062 l 0.25,-0.077 c 0.025,-0.01 0.05,-0.015 0.073,-0.023 4.166,-1.295 4.914,-1.903 4.976,-1.96 h 0.004 l 0.193,-0.192 0.012,0.013 5.977,-5.974 0.427,-0.427 c 0.472,-0.47 0.472,-1.235 0,-1.707 l -3.416,-3.414 z"
       fill="#00b798"
       id="path16" />
    <path
       d="m 329,8 -2,2 v 16 l 2,2 h 10 l 8,-8 V 10 l -2,-2 z"
       fill-rule="evenodd"
       fill="#00b798"
       id="path17" />
  </g>
</svg>
