<?xml version="1.0" encoding="UTF-8" standalone="no"?>
<svg
   inkscape:version="1.0 (4035a4fb49, 2020-05-01)"
   sodipodi:docname="modify-poly.svg"
   id="svg4460"
   height="94.833984"
   width="98.648819"
   version="1.1"
   xmlns:inkscape="http://www.inkscape.org/namespaces/inkscape"
   xmlns:sodipodi="http://sodipodi.sourceforge.net/DTD/sodipodi-0.dtd"
   xmlns="http://www.w3.org/2000/svg"
   xmlns:svg="http://www.w3.org/2000/svg"
   xmlns:rdf="http://www.w3.org/1999/02/22-rdf-syntax-ns#"
   xmlns:cc="http://creativecommons.org/ns#"
   xmlns:dc="http://purl.org/dc/elements/1.1/">
  <sodipodi:namedview
     inkscape:document-rotation="0"
     inkscape:current-layer="svg4460"
     inkscape:window-maximized="1"
     inkscape:window-y="-8"
     inkscape:window-x="-8"
     inkscape:cy="116.65658"
     inkscape:cx="-47.890938"
     inkscape:zoom="2.02"
     showgrid="false"
     id="namedview11"
     inkscape:window-height="1017"
     inkscape:window-width="1920"
     inkscape:pageshadow="2"
     inkscape:pageopacity="0"
     guidetolerance="10"
     gridtolerance="10"
     objecttolerance="10"
     borderopacity="1"
     bordercolor="#666666"
     pagecolor="#ffffff"
     showguides="false"
     inkscape:showpageshadow="2"
     inkscape:pagecheckerboard="0"
     inkscape:deskcolor="#d1d1d1">
    <inkscape:page
       x="0"
       y="0"
       width="98.648819"
       height="94.833984"
       id="page2"
       margin="0"
       bleed="0" />
  </sodipodi:namedview>
  <defs
     id="defs4462" />
  <metadata
     id="metadata4465">
    <rdf:RDF>
      <cc:Work
         rdf:about="">
        <dc:format>image/svg+xml</dc:format>
        <dc:type
           rdf:resource="http://purl.org/dc/dcmitype/StillImage" />
        <dc:title />
      </cc:Work>
    </rdf:RDF>
  </metadata>
  <path
     d="M 41.099142,2.1341858e-7 C 36.809431,5.8501342e-4 32.62251,2.1824917 30.300314,6.121094 c -2.571158,4.360859 -2.164683,9.696407 0.582031,13.611328 L 18.315939,32.152344 a 3.5,3.5 0 0 0 -0.04492,-0.01563 C 12.427505,29.125784 5.1018771,31.138312 1.724142,36.867188 -1.7750955,42.802125 0.22475306,50.5535 6.1596889,54.052734 9.6230138,56.094707 13.70218,56.252232 17.196799,54.859375 l 12.740234,19.136719 c -1.964281,2.21752 -3.171875,5.117482 -3.171875,8.287109 0,6.889712 5.659117,12.550782 12.548828,12.550781 6.35729,10e-7 11.60992,-4.83543 12.388672,-10.99414 l 2.136719,-0.759766 -1.419922,-3.990234 -0.947266,0.33789 C 51.070734,77.732192 50.329183,76.16371 49.317892,74.804688 l 0.183594,0.142578 32.683594,-40.25586 c 1.190701,0.391054 2.416528,0.570019 3.638672,0.59375 l -0.07031,1.400391 4.226563,0.207031 0.109375,-2.248047 c 2.779282,-0.92247 5.254321,-2.789187 6.845703,-5.488281 3.380457,-5.73349 1.590949,-13.124822 -3.882813,-16.777344 a 3.5,3.5 0 0 0 -0.554687,-0.408203 3.5,3.5 0 0 0 -0.638672,-0.292969 c -5.843525,-3.0108799 -13.169135,-0.998407 -16.546875,4.730469 -0.06799,0.115306 -0.11975,0.234931 -0.183594,0.351563 L 53.624533,12.044922 C 53.456276,8.1437531 51.471753,4.3826699 48.038595,2.0917971 A 3.5,3.5 0 0 0 47.485861,1.683594 3.5,3.5 0 0 0 46.847189,1.3906252 C 45.021088,0.44972491 43.049011,-2.6558658e-4 41.099142,2.1341858e-7 Z M 41.300314,6.9296881 c 0.892828,0.03536 1.794574,0.29013 2.630859,0.783203 2.676114,1.577835 3.538773,4.9254479 1.960938,7.6015619 -1.577834,2.676115 -4.923495,3.538772 -7.599609,1.960938 -2.676115,-1.577835 -3.540725,-4.923495 -1.962891,-7.5996099 1.084762,-1.839828 3.006482,-2.823885 4.970703,-2.746093 z M 86.312033,17.216797 c 0.892828,0.03536 1.794574,0.29013 2.630859,0.783203 2.676115,1.577835 3.540724,4.925449 1.962891,7.601563 -1.577835,2.676115 -4.925449,3.540725 -7.601563,1.96289 -2.676115,-1.577834 -3.538771,-4.925447 -1.960937,-7.601562 1.084761,-1.839829 3.004529,-2.823886 4.96875,-2.746094 z M 12.722189,37.677734 c 0.892828,0.03536 1.794572,0.290131 2.63086,0.783204 2.676113,1.577835 3.540724,4.923494 1.96289,7.599609 -1.577835,2.676114 -4.923494,3.540725 -7.5996092,1.962891 C 7.0402137,46.445603 6.1756045,43.097989 7.7534389,40.421875 8.8382005,38.582046 10.757968,37.599944 12.722189,37.677734 Z m 72.826172,3.234376 -0.423828,8.455078 4.234375,0.210937 0.414062,-8.458984 z m -0.628906,12.68164 -0.04883,0.994141 c -0.07808,-0.0015 -0.154003,-0.01172 -0.23242,-0.01172 -6.889711,0 -12.550779,5.659117 -12.550782,12.548828 0,1.647114 0.331428,3.219908 0.917969,4.666016 l -4.61914,1.640625 1.414062,3.986328 5.509766,-1.949219 c 2.304402,2.570948 5.634664,4.207032 9.328125,4.207031 6.649887,0 12.103355,-5.287515 12.478515,-11.849609 A 3.5,3.5 0 0 0 97.18703,67.125 3.5,3.5 0 0 0 97.11672,66.431641 C 96.832642,61.407219 93.566486,57.139463 89.069845,55.408203 l 0.08008,-1.597656 z m -0.28125,7.982422 c 3.10663,0 5.548828,2.442198 5.548828,5.548828 0,3.10663 -2.442198,5.550781 -5.548828,5.550781 -3.10663,0 -5.550779,-2.44415 -5.550782,-5.550781 0,-3.10663 2.444152,-5.548827 5.550782,-5.548828 z m -20.248047,13.271484 -7.976563,2.833985 1.41211,3.986328 7.984375,-2.830078 z m -25.076172,1.886719 c 3.10663,0 5.550781,2.442198 5.550781,5.548828 0,3.106631 -2.444151,5.550782 -5.550781,5.550781 -3.10663,10e-7 -5.548828,-2.44415 -5.548828,-5.550781 0,-3.10663 2.442198,-5.548828 5.548828,-5.548828 z"
     style="color:#000000;font-style:normal;font-variant:normal;font-weight:normal;font-stretch:normal;font-size:medium;line-height:normal;font-family:sans-serif;text-indent:0;text-align:start;text-decoration:none;text-decoration-line:none;text-decoration-style:solid;text-decoration-color:#000000;letter-spacing:normal;word-spacing:normal;text-transform:none;writing-mode:lr-tb;direction:ltr;baseline-shift:baseline;text-anchor:start;white-space:normal;clip-rule:nonzero;display:inline;overflow:visible;visibility:visible;opacity:1;isolation:auto;mix-blend-mode:normal;color-interpolation:sRGB;color-interpolation-filters:linearRGB;solid-color:#000000;solid-opacity:1;fill:#00b798;fill-opacity:1;fill-rule:evenodd;stroke:none;stroke-width:8.46826;stroke-linecap:butt;stroke-linejoin:miter;stroke-miterlimit:4;stroke-dasharray:none;stroke-dashoffset:0;stroke-opacity:1;color-rendering:auto;image-rendering:auto;shape-rendering:auto;text-rendering:auto;enable-background:accumulate"
     id="path4133" />
</svg>
